<?xml version="1.0" standalone="no"?>
<!DOCTYPE svg PUBLIC "-//W3C//DTD SVG 20010904//EN"
 "http://www.w3.org/TR/2001/REC-SVG-20010904/DTD/svg10.dtd">
<svg version="1.0" xmlns="http://www.w3.org/2000/svg"
 width="855.000000pt" height="855.000000pt" viewBox="0 0 855.000000 855.000000"
 preserveAspectRatio="xMidYMid meet">
<metadata>
Created by potrace 1.14, written by Peter Selinger 2001-2017
</metadata>
<g transform="translate(0.000000,855.000000) scale(0.100000,-0.100000)"
fill="#000000" stroke="none">
<path d="M2248 8405 c-2 -1 -82 -5 -178 -9 -96 -3 -184 -8 -195 -10 -11 -2
-49 -7 -85 -11 -36 -4 -74 -9 -85 -11 -10 -2 -37 -6 -60 -9 -74 -11 -239 -56
-335 -92 -167 -62 -342 -161 -475 -266 -97 -78 -252 -243 -329 -352 -107 -151
-228 -403 -252 -524 -3 -13 -9 -32 -15 -43 -5 -10 -7 -18 -5 -18 3 0 1 -11 -4
-24 -5 -13 -11 -42 -15 -63 -3 -22 -9 -53 -14 -69 -4 -16 -7 -37 -5 -46 1 -10
-1 -18 -4 -18 -4 0 -8 -12 -8 -27 -1 -16 -5 -71 -9 -123 -4 -52 -8 -104 -9
-115 -1 -11 -5 -26 -10 -33 -4 -7 -3 -19 3 -26 7 -9 6 -19 -6 -36 -9 -13 -11
-20 -5 -16 11 7 18 -15 12 -39 -1 -5 -4 -50 -5 -100 -2 -49 -4 -92 -5 -95 -1
-3 -1 -9 0 -15 8 -29 4 -151 -5 -157 -6 -5 -5 -8 3 -8 7 0 10 -4 7 -10 -3 -5
-6 -109 -5 -231 0 -163 -3 -226 -13 -237 -7 -10 -8 -13 -1 -9 18 11 19 -449 2
-471 -8 -10 -9 -13 -1 -9 17 11 18 -930 0 -952 -8 -10 -9 -13 0 -8 17 11 18
-570 0 -592 -8 -10 -8 -13 0 -8 8 5 12 -38 12 -170 0 -98 1 -178 1 -178 1 0 1
-47 0 -105 0 -58 0 -114 0 -125 2 -353 1 -465 -4 -474 -4 -6 -2 -11 4 -11 8 0
7 -6 -1 -21 -6 -12 -7 -19 -2 -16 4 3 9 -6 9 -19 1 -14 -2 -21 -8 -18 -6 4 -7
0 -1 -12 13 -28 9 -79 -7 -100 -13 -17 -13 -18 0 -7 14 10 16 2 17 -75 1 -48
3 -99 6 -114 3 -17 0 -25 -6 -21 -6 4 -7 1 -1 -8 13 -21 14 -41 2 -62 -7 -14
-7 -17 1 -13 7 5 11 -6 12 -31 2 -87 5 -129 10 -138 10 -19 4 -50 -9 -47 -8 1
-11 -2 -7 -8 3 -6 11 -8 16 -5 5 4 9 0 10 -7 0 -7 2 -20 4 -28 11 -55 12 -81
3 -86 -7 -5 -6 -11 4 -18 21 -16 27 -38 16 -60 -7 -12 -7 -16 0 -12 6 3 13 2
17 -4 3 -5 1 -10 -6 -10 -8 0 -7 -5 2 -17 12 -15 12 -16 -4 -10 -11 4 -16 3
-12 -3 3 -6 12 -10 19 -10 10 0 39 -80 41 -115 1 -5 9 -27 19 -48 15 -30 16
-40 6 -52 -11 -13 -10 -14 3 -9 20 7 50 -54 35 -72 -6 -8 -3 -11 8 -10 9 0 18
-7 19 -16 2 -10 10 -25 19 -34 13 -12 14 -19 5 -30 -9 -11 -6 -16 15 -25 29
-13 31 -20 15 -36 -7 -7 -6 -12 6 -17 10 -4 14 -2 9 6 -5 7 -3 8 5 3 7 -4 11
-16 8 -26 -3 -10 0 -22 5 -26 7 -4 8 -1 3 8 -8 12 -6 12 8 0 9 -7 15 -17 12
-21 -3 -4 6 -15 19 -23 16 -11 23 -25 22 -43 -1 -17 5 -29 14 -31 12 -4 12 -3
1 5 -8 6 -9 12 -3 16 5 3 13 -1 16 -10 8 -20 -3 -66 -14 -59 -5 3 -11 2 -14
-3 -3 -5 2 -9 10 -9 9 0 20 11 25 24 5 13 13 21 19 18 6 -4 4 -16 -6 -31 -9
-13 -14 -27 -10 -31 3 -3 6 -1 6 6 0 7 4 10 10 6 5 -3 6 -13 3 -23 -5 -14 -3
-15 7 -5 11 10 11 15 0 28 -21 25 -3 29 22 5 13 -13 17 -19 9 -15 -9 5 -12 4
-7 -3 3 -6 2 -13 -4 -17 -5 -3 -10 -11 -10 -18 0 -6 7 -2 15 9 15 19 15 19 34
-3 10 -12 22 -19 27 -15 5 4 6 3 2 -2 -4 -4 7 -20 23 -34 21 -17 27 -28 20
-35 -7 -7 -15 -6 -25 2 -11 9 -16 9 -22 -1 -4 -7 -4 -10 1 -6 4 4 17 1 29 -7
11 -8 25 -15 31 -15 5 0 3 5 -5 11 -12 8 -12 9 5 7 24 -4 56 -29 49 -39 -2 -4
5 -10 16 -14 11 -3 20 -11 20 -17 0 -6 -7 -5 -17 3 -9 8 -14 9 -10 2 4 -6 2
-13 -4 -15 -7 -2 -5 -9 5 -17 14 -12 16 -12 11 1 -5 11 0 15 17 13 37 -4 38
-4 38 -19 0 -8 4 -18 10 -21 6 -4 7 1 3 12 -5 14 -2 13 17 -5 13 -12 28 -22
32 -22 5 0 6 -5 2 -12 -5 -8 -2 -9 9 -5 10 4 16 2 14 -5 -1 -7 4 -13 11 -14 6
-1 17 -2 22 -3 6 0 10 -6 10 -12 0 -8 -6 -7 -17 2 -15 11 -14 10 1 -9 18 -21
10 -32 -10 -12 -6 6 -14 2 -23 -13 -8 -12 -10 -19 -6 -15 11 11 36 -12 28 -25
-4 -6 -1 -7 6 -3 9 6 8 13 -5 27 -9 10 -12 19 -6 19 6 0 14 -5 18 -11 4 -8 9
-7 15 2 7 11 9 11 9 1 0 -7 5 -10 11 -7 6 5 4 12 -8 21 -17 12 -17 13 0 14 9
0 17 -5 17 -11 0 -5 5 -7 11 -3 7 4 7 -1 -1 -16 -7 -12 -17 -19 -26 -16 -8 3
-14 1 -14 -4 0 -6 9 -10 21 -10 11 0 17 -5 14 -10 -3 -6 -1 -10 4 -10 6 0 11
5 11 10 0 15 16 12 18 -2 0 -7 4 -24 8 -37 5 -19 4 -22 -6 -16 -9 5 -11 4 -6
-4 9 -14 26 -5 26 13 0 8 6 19 14 25 20 17 41 -19 23 -39 -10 -12 -9 -12 5 -2
13 11 19 9 32 -9 12 -17 18 -20 29 -11 8 7 17 9 20 5 4 -3 -1 -12 -11 -19 -9
-7 -12 -14 -5 -14 6 0 18 6 25 12 21 20 37 19 48 -2 9 -16 8 -20 -5 -20 -9 0
-13 4 -10 10 4 6 -1 7 -11 3 -16 -6 -15 -8 4 -16 17 -8 27 -6 42 8 18 16 20
16 20 2 0 -10 -4 -17 -10 -17 -5 0 -10 -4 -10 -10 0 -17 18 -11 24 8 4 10 13
19 21 19 18 0 20 -13 3 -21 -7 -3 -2 -3 12 1 22 5 23 4 12 -10 -8 -9 -19 -14
-26 -11 -16 6 -29 -23 -15 -31 5 -4 9 -3 8 2 -4 22 2 25 16 7 15 -18 15 -18 8
0 -5 14 -3 17 7 11 8 -5 11 -4 7 2 -4 6 1 17 10 24 15 12 16 12 10 -4 -4 -10
-3 -16 2 -12 5 3 12 -4 16 -15 8 -26 22 -26 30 0 4 11 11 18 16 14 5 -3 6 -10
3 -16 -4 -7 -2 -8 4 -4 7 4 12 2 12 -3 0 -6 -7 -11 -15 -11 -8 0 -15 -4 -15
-9 0 -4 18 -7 40 -5 25 2 39 0 35 -6 -9 -15 5 -12 21 5 13 13 11 14 -25 11
-27 -3 -38 0 -36 8 7 19 -31 56 -54 51 -12 -2 -19 0 -16 5 3 5 -3 7 -15 5 -11
-2 -22 0 -25 6 -4 5 0 10 7 10 13 1 18 1 53 -8 11 -2 25 -5 32 -5 7 -1 11 -6
10 -11 -1 -5 4 -12 12 -15 9 -3 11 0 6 8 -6 9 -4 11 6 5 7 -5 20 -10 29 -12 8
-1 29 -4 45 -7 76 -13 101 -19 111 -27 6 -5 16 -4 24 4 7 6 10 7 7 1 -4 -7 7
-11 31 -12 43 -1 63 -5 79 -15 6 -4 13 -2 15 5 3 8 7 6 11 -4 4 -13 1 -16 -14
-13 -10 2 -19 -1 -19 -7 0 -6 -3 -8 -7 -5 -3 4 -12 2 -20 -4 -15 -13 -18 2 -3
17 8 8 2 10 -17 9 -15 -1 -31 3 -35 9 -5 7 -8 6 -8 -3 0 -11 -3 -11 -17 0 -15
11 -16 11 -5 -1 6 -8 12 -19 12 -24 -1 -6 -10 0 -20 13 -11 13 -20 19 -20 14
0 -5 6 -15 13 -22 10 -11 9 -13 -6 -7 -10 3 -21 6 -23 6 -3 0 0 9 6 19 9 17 7
19 -10 16 -11 -2 -20 1 -20 6 0 6 -5 7 -11 3 -8 -4 -7 -9 2 -16 11 -8 11 -9
-1 -5 -8 2 -14 9 -13 15 2 6 -6 10 -17 9 -11 -1 -21 -5 -21 -9 -5 -21 -3 -28
5 -27 5 0 13 -5 18 -13 8 -10 9 -10 5 2 -2 8 -10 14 -16 12 -6 -1 -11 2 -11 8
0 5 6 10 13 10 19 0 36 -20 31 -35 -3 -7 0 -16 7 -21 9 -5 11 -2 6 8 -3 9 1
24 9 35 14 17 15 17 9 -3 -8 -32 41 -46 78 -22 15 11 27 15 27 9 0 -5 -10 -17
-22 -25 -12 -9 -17 -16 -11 -16 6 0 16 7 23 15 7 8 16 12 21 9 5 -3 -1 -14
-13 -25 l-23 -20 28 17 c22 13 30 14 42 4 15 -12 21 -3 16 24 -1 5 5 6 13 3
14 -6 31 7 38 28 1 6 8 8 13 7 25 -9 53 -13 90 -14 37 -1 54 -11 55 -32 0 -5
-7 -2 -16 5 -19 15 -82 20 -90 7 -7 -11 25 -62 34 -53 4 3 0 10 -8 15 -8 5
-11 12 -7 16 4 4 16 -1 27 -11 15 -13 17 -21 9 -26 -7 -4 -1 -6 14 -6 14 1 24
4 22 6 -3 2 0 12 6 23 10 19 12 19 41 -8 19 -19 27 -23 23 -11 -4 9 -12 17
-19 17 -8 0 -8 3 0 8 6 4 14 16 17 27 7 20 7 20 -8 1 -11 -14 -15 -16 -15 -5
0 11 -2 11 -9 1 -6 -11 -10 -10 -15 4 -3 9 -4 19 -1 22 3 3 5 0 5 -7 0 -7 5
-9 13 -4 6 4 20 9 29 10 14 2 17 -3 14 -26 -2 -16 1 -35 6 -43 8 -10 9 -9 5 4
-3 9 1 19 9 22 11 4 14 1 9 -13 -4 -12 0 -21 11 -25 14 -5 15 -4 5 8 -9 11 -7
13 13 13 14 0 28 -8 35 -21 11 -21 11 -21 5 2 l-5 22 38 -21 c35 -19 29 -10
-14 18 -17 13 -17 13 1 10 11 -1 20 5 21 16 2 9 -1 17 -6 17 -5 0 -9 -4 -9
-10 0 -5 -5 -10 -11 -10 -5 0 -8 4 -5 8 3 5 -10 9 -29 9 -19 0 -35 -3 -35 -7
0 -4 -7 -7 -15 -7 -8 0 -11 5 -8 10 3 6 1 7 -5 3 -8 -5 -10 -1 -5 10 4 11 8
13 11 6 2 -7 8 -12 13 -12 6 0 8 4 5 8 -3 5 1 9 9 9 8 0 15 -4 15 -8 0 -8 39
-4 48 5 2 3 13 1 23 -5 14 -7 19 -6 19 3 0 9 3 9 10 -2 5 -8 10 -11 10 -6 0 5
8 2 17 -5 15 -12 16 -12 10 4 -5 13 -3 16 6 10 6 -4 341 -8 742 -8 402 0 736
-4 743 -8 6 -5 12 -4 12 0 0 5 131 8 292 8 250 0 292 -2 295 -15 4 -12 3 -12
-5 -1 -8 11 -10 11 -15 0 -5 -12 -6 -12 -6 0 -1 11 -4 11 -16 1 -8 -7 -15 -9
-15 -5 0 4 -6 2 -14 -4 -9 -8 -16 -8 -20 -2 -4 6 -14 8 -24 5 -14 -5 -15 -4
-2 5 8 6 10 11 5 11 -6 0 -16 -5 -23 -12 -9 -9 -12 -9 -12 3 0 12 -2 12 -10
-1 -8 -13 -10 -13 -10 -1 0 11 -4 9 -14 -5 -8 -10 -18 -16 -22 -11 -4 4 -2 7
4 7 7 0 12 5 12 11 0 8 -5 7 -16 -2 -13 -10 -17 -10 -26 2 -8 11 -9 11 -4 -4
3 -9 1 -17 -4 -17 -6 0 -10 8 -10 17 0 15 -2 14 -15 -3 -15 -19 -15 -19 -9 1
5 16 4 17 -5 5 -9 -13 -11 -13 -11 0 0 13 -1 13 -10 0 -9 -13 -10 -13 -10 0 0
13 -1 13 -10 0 -9 -13 -10 -13 -11 0 0 9 -4 7 -11 -7 -10 -21 -29 -32 -27 -16
1 5 1 14 0 22 -1 11 -4 11 -18 0 -14 -12 -17 -12 -21 0 -3 10 -8 8 -17 -9 -8
-15 -15 -19 -19 -11 -4 6 -2 11 3 11 6 0 11 5 11 11 0 6 -13 1 -30 -11 -30
-22 -41 -16 -17 10 10 12 9 12 -5 1 -15 -11 -18 -11 -18 0 0 12 -2 12 -9 1
-11 -19 -15 -19 -33 -4 -13 10 -17 10 -21 0 -4 -10 -6 -10 -6 1 -1 11 -4 11
-17 0 -13 -10 -17 -10 -25 2 -7 12 -9 12 -9 -1 0 -9 -3 -11 -8 -5 -4 6 -14 11
-22 13 -11 2 -11 -1 3 -12 16 -12 16 -14 1 -20 -20 -8 -24 -8 -23 2 3 18 -2
32 -11 32 -6 0 -9 -5 -8 -11 2 -6 -3 -14 -11 -17 -8 -2 -11 0 -7 6 3 6 1 14
-5 18 -7 4 -9 3 -6 -3 4 -6 0 -14 -9 -17 -24 -9 -28 -7 -15 7 8 10 7 14 -3 14
-8 0 -13 -8 -11 -19 2 -10 -1 -18 -7 -18 -5 0 -7 7 -4 16 3 8 2 12 -3 9 -5 -3
-12 -1 -15 4 -6 10 -24 10 -41 0 -5 -3 -27 -5 -47 -4 -20 1 -34 -3 -31 -8 3
-5 -4 -4 -14 2 -11 6 -23 7 -27 4 -3 -3 -6 0 -6 8 0 11 -2 11 -10 -1 -9 -13
-10 -13 -10 0 0 13 -1 13 -10 0 -9 -13 -10 -13 -10 0 -1 12 -3 11 -11 -2 -5
-10 -15 -18 -21 -18 -7 0 -7 4 1 13 8 10 7 14 -4 14 -8 0 -12 -4 -9 -8 2 -4
-1 -11 -7 -15 -8 -5 -9 -3 -4 5 6 10 3 11 -14 2 -17 -10 -22 -9 -27 4 -5 13
-9 13 -22 3 -12 -11 -16 -10 -20 1 -3 10 -8 8 -17 -9 -8 -15 -15 -19 -19 -11
-4 6 -2 11 3 11 6 0 11 5 11 11 0 8 -4 8 -12 2 -7 -6 -25 -9 -40 -8 -20 1 -25
-2 -21 -14 3 -9 -2 -6 -12 7 -14 19 -19 21 -32 11 -11 -10 -16 -10 -23 0 -5 9
-10 10 -14 2 -4 -6 -13 -11 -19 -11 -7 0 -6 4 3 11 10 7 11 9 2 7 -20 -5 -10
-23 10 -21 10 2 17 -3 15 -10 -1 -6 4 -11 11 -9 6 1 12 -2 12 -8 0 -13 -27
-13 -35 0 -4 6 -15 8 -26 5 -11 -4 -19 -3 -18 2 3 19 -2 34 -10 29 -5 -4 -11
0 -13 6 -3 7 -5 -1 -5 -19 0 -30 2 -32 31 -29 17 2 36 1 41 -3 6 -5 18 -11 27
-14 13 -5 16 0 13 23 -4 27 -2 28 15 18 14 -9 16 -15 8 -25 -6 -8 -8 -16 -4
-20 3 -3 6 -1 6 6 0 9 6 9 23 1 20 -10 21 -10 4 3 -11 9 -14 18 -8 21 5 4 13
2 16 -4 4 -7 11 -7 18 -2 7 5 19 9 27 9 8 1 23 4 33 8 13 5 16 3 11 -8 -3 -10
3 -20 18 -27 22 -11 22 -10 4 4 -11 9 -17 19 -13 22 4 4 13 1 21 -5 10 -8 16
-9 21 -1 3 5 11 10 17 10 6 0 3 -9 -7 -20 -10 -11 -14 -20 -9 -20 5 0 15 9 22
20 7 11 17 20 24 20 6 0 3 -9 -7 -20 -23 -26 -15 -26 15 0 13 12 18 20 10 20
-17 0 -4 13 15 16 10 1 13 -6 10 -26 -3 -27 -2 -28 21 -18 17 8 23 17 18 30
-5 16 -3 17 20 7 24 -11 30 -21 27 -41 0 -5 4 -8 10 -8 6 0 8 7 5 15 -3 8 -9
21 -12 29 -3 9 0 14 10 12 19 -3 34 -16 18 -16 -7 0 -12 -5 -12 -11 0 -8 6 -7
17 2 13 11 17 11 20 2 3 -7 10 -13 16 -13 8 0 7 4 -1 12 -16 16 -15 33 1 19 8
-6 17 -8 20 -4 10 10 8 -6 -3 -27 -7 -14 -6 -18 5 -16 8 1 18 6 22 11 4 4 2 5
-6 0 -9 -5 -12 -3 -9 5 2 7 16 14 32 16 23 2 25 0 15 -12 -6 -8 -10 -14 -8
-15 39 -8 40 -7 27 8 -11 14 -10 15 9 9 12 -4 24 -2 28 4 5 8 13 6 26 -6 18
-16 19 -16 27 6 10 26 59 38 59 14 0 -9 -8 -12 -24 -10 -12 3 -23 0 -23 -5 0
-6 6 -9 13 -6 6 2 24 -2 38 -9 23 -11 26 -11 26 4 0 9 -4 23 -10 30 -6 8 -6
12 1 12 6 0 19 -10 29 -23 10 -13 25 -27 33 -32 9 -5 8 0 -4 13 -22 25 -11 30
15 6 10 -9 15 -23 12 -32 -4 -14 -3 -15 5 -2 8 10 7 19 -1 29 -10 12 -9 14 3
9 9 -3 24 0 35 8 33 24 41 14 10 -12 -23 -20 -25 -23 -7 -14 19 9 29 8 50 -5
l27 -16 -23 20 c-29 25 -28 28 8 28 18 0 30 -6 30 -13 0 -7 4 -16 10 -19 6 -3
7 1 4 10 -5 11 -2 14 10 9 9 -3 14 -9 11 -13 -6 -10 33 -7 42 4 5 4 2 5 -4 1
-7 -4 -13 -2 -13 4 0 6 -5 8 -10 5 -5 -3 -10 -2 -10 3 0 6 7 13 16 16 22 8 26
8 19 -4 -4 -6 1 -7 11 -3 11 4 15 3 10 -5 -3 -6 -2 -13 3 -17 6 -3 8 4 6 15
-3 14 0 20 8 17 7 -2 12 -11 12 -20 0 -9 3 -17 8 -17 4 0 12 0 17 0 6 0 10 5
10 11 0 8 -5 8 -15 -1 -8 -7 -15 -9 -15 -4 0 12 20 41 20 30 0 -5 7 -2 16 5
15 12 16 11 10 -8 -5 -17 -2 -24 16 -33 22 -11 22 -10 4 4 -11 9 -16 19 -13
23 4 4 12 2 18 -4 9 -9 17 -8 31 0 16 10 22 9 34 -7 8 -11 14 -14 14 -8 0 7 5
12 11 12 7 0 5 -11 -5 -27 -17 -28 -17 -28 8 1 24 29 56 43 56 25 0 -5 -6 -9
-14 -9 -8 0 -18 -4 -21 -10 -4 -6 2 -7 17 -1 15 6 22 16 21 30 -2 18 0 19 22
9 14 -6 27 -20 31 -31 6 -19 7 -19 16 -3 5 10 7 20 4 23 -3 4 -6 0 -6 -8 0
-11 -2 -11 -10 1 -14 21 -12 29 6 26 23 -4 35 -28 21 -46 -8 -10 -5 -9 9 2 25
22 41 24 24 3 -7 -8 -8 -15 -4 -15 5 0 15 9 22 20 7 11 17 20 24 20 6 0 3 -9
-7 -20 -17 -18 -17 -20 -2 -14 9 3 17 10 17 14 0 5 12 7 28 5 15 -2 22 -2 15
1 -7 3 -9 12 -6 20 3 7 9 12 13 9 5 -3 11 -1 14 4 4 5 1 13 -5 17 -7 4 -9 3
-5 -4 4 -7 -1 -10 -14 -7 -11 2 -20 1 -20 -3 0 -4 -9 -8 -21 -9 -16 -1 -18 1
-10 11 8 9 7 13 -4 13 -8 0 -12 -3 -10 -7 2 -4 -1 -7 -8 -7 -7 0 -21 -4 -32
-9 -17 -7 -18 -5 -8 7 10 13 10 16 -2 16 -8 0 -12 -4 -10 -7 3 -4 -9 -6 -25
-5 -16 1 -27 -1 -24 -6 3 -5 -2 -6 -11 -2 -13 5 -14 7 -3 14 7 5 8 9 3 9 -6 0
-16 -5 -23 -12 -9 -9 -12 -9 -12 3 0 12 130 14 973 16 534 1 977 3 982 3 15 2
38 -5 54 -14 11 -7 13 -5 7 9 -5 14 -4 15 7 7 7 -6 18 -7 27 -2 8 5 23 2 39
-8 20 -13 23 -13 14 -2 -10 13 -4 15 42 16 46 0 53 -2 52 -18 -1 -10 -5 -18
-10 -18 -5 0 -7 6 -4 13 3 8 -1 14 -8 14 -7 0 -11 -6 -8 -14 6 -16 -9 -17 -25
-1 -10 10 -14 10 -21 0 -10 -16 -32 -12 -48 8 -10 13 -11 12 -10 -4 1 -10 -4
-21 -11 -23 -8 -3 -10 2 -6 14 3 10 2 14 -3 8 -9 -12 -42 -13 -59 -3 -7 5 -10
-1 -8 -17 2 -22 -1 -24 -22 -21 -13 3 -24 1 -24 -4 0 -13 26 -19 41 -9 19 12
42 11 34 -1 -3 -5 -1 -10 4 -10 6 0 11 5 11 11 0 5 5 7 10 4 6 -3 10 -2 10 3
0 5 11 10 25 10 13 0 22 -4 19 -9 -3 -5 0 -9 6 -9 6 0 9 8 6 18 -4 13 -1 18
14 18 23 0 25 -7 8 -24 -9 -9 -9 -12 0 -12 7 0 12 5 12 11 0 5 4 7 10 4 6 -4
7 1 3 12 -6 15 -4 16 9 5 8 -7 22 -10 31 -6 8 3 18 0 22 -6 5 -8 13 -3 25 15
13 20 19 23 23 12 3 -9 -1 -18 -9 -21 -8 -3 -13 -13 -13 -23 1 -17 2 -17 6 0
5 18 15 22 26 10 4 -3 2 -11 -3 -18 -7 -8 -5 -12 4 -12 15 0 16 14 3 35 -5 7
-2 14 7 18 8 3 14 14 13 24 -1 10 -5 16 -9 14 -5 -3 -6 -9 -3 -14 3 -5 1 -11
-5 -15 -5 -3 -10 1 -10 10 0 11 -7 14 -25 11 -14 -3 -25 0 -25 5 0 11 -1 11
80 13 83 3 93 0 78 -24 -7 -10 -16 -16 -20 -13 -5 2 -4 10 1 17 8 9 7 13 -4
13 -8 0 -12 -4 -9 -9 5 -7 -10 -12 -28 -9 -16 2 -7 -15 13 -27 12 -8 18 -9 15
-3 -4 6 10 9 36 8 40 -2 43 0 40 23 -2 23 -1 24 14 8 15 -14 15 -19 2 -37 -8
-11 -17 -19 -20 -16 -2 3 -5 -2 -5 -12 0 -12 5 -11 20 8 10 13 22 23 26 22 3
-2 6 2 6 9 0 6 6 13 14 16 8 3 11 0 7 -7 -4 -6 -2 -11 3 -11 17 0 13 18 -6 29
-15 9 -14 10 9 9 23 -2 26 -6 23 -30 -2 -15 1 -28 6 -28 6 0 7 9 3 22 -6 21
-5 22 12 8 15 -11 16 -11 7 0 -7 8 -13 18 -13 23 0 14 21 -4 30 -27 l9 -21 0
22 c1 12 -4 23 -9 25 -6 2 -1 9 11 16 19 12 20 11 14 -7 -4 -14 0 -23 17 -31
22 -10 22 -10 4 4 -16 13 -17 18 -6 31 7 8 16 13 20 10 4 -2 15 2 25 9 14 10
15 15 5 21 -9 5 -11 4 -6 -3 4 -7 2 -12 -3 -12 -6 0 -11 6 -11 13 -1 7 -6 6
-14 -5 -9 -12 -22 -16 -42 -12 -19 3 -24 1 -16 -4 11 -8 11 -10 -2 -15 -9 -4
-16 -1 -16 6 0 8 -4 6 -10 -3 -9 -13 -10 -13 -10 0 0 13 -1 13 -10 0 -5 -8
-10 -10 -10 -4 0 6 -7 11 -15 11 -14 0 -19 -11 -16 -30 1 -5 -4 -7 -11 -4 -7
2 -12 9 -11 15 2 6 -6 9 -17 7 -11 -2 -20 1 -20 7 0 5 6 8 14 5 8 -3 17 -3 21
1 4 4 23 8 43 8 20 1 44 4 52 7 8 4 29 8 45 11 17 2 31 5 33 6 1 2 10 3 20 4
9 1 23 5 30 9 6 5 16 6 21 2 5 -3 12 -1 16 5 8 13 35 13 35 0 0 -5 -6 -7 -14
-4 -17 6 -31 -12 -16 -21 6 -4 8 -11 5 -16 -7 -11 -26 -12 -24 -2 3 19 -2 33
-11 33 -6 0 -9 -3 -8 -7 5 -18 -14 -53 -25 -47 -7 4 -9 3 -4 -1 4 -5 18 -10
30 -12 17 -2 19 -1 7 6 -8 6 -11 14 -6 18 4 4 14 -1 22 -11 11 -16 14 -17 14
-4 0 8 7 21 16 29 14 11 15 10 12 -6 -2 -13 3 -20 17 -22 18 -3 18 -2 2 5 -17
7 -17 9 -3 21 11 9 16 10 16 2 0 -6 5 -11 11 -11 8 0 7 6 -2 17 -12 15 -12 16
6 9 11 -4 16 -4 12 0 -4 4 -2 13 4 20 7 8 6 14 -2 20 -7 4 -10 3 -7 -2 4 -5
-5 -10 -18 -10 -13 -1 -24 2 -24 7 0 5 9 9 19 9 11 0 22 4 26 9 3 5 17 8 31 5
14 -3 23 -1 20 5 -6 9 34 24 43 16 2 -3 -2 -5 -10 -5 -11 0 -12 -2 -1 -9 11
-7 10 -9 -3 -14 -11 -5 -14 -3 -10 6 4 6 1 5 -7 -4 -7 -9 -20 -15 -28 -14 -9
2 -16 -6 -16 -21 -1 -13 3 -24 9 -24 6 0 7 3 4 7 -4 3 5 14 20 24 21 14 30 15
41 7 8 -7 24 -14 35 -15 21 -4 21 -3 2 11 -11 8 -16 18 -12 22 4 5 13 2 18 -6
9 -12 10 -12 5 3 -5 15 -2 17 14 12 12 -4 20 -2 20 5 0 6 5 8 11 4 6 -3 3 5
-6 20 -16 24 -16 26 -1 26 11 0 14 5 10 12 -4 6 -3 8 4 4 6 -3 13 -2 17 4 4 6
10 8 15 5 5 -3 13 2 18 10 5 9 15 17 24 18 8 2 27 11 41 20 15 10 27 15 27 11
0 -3 15 5 34 19 32 25 46 26 46 4 0 -5 -8 -6 -17 -3 -16 6 -16 5 0 -8 11 -8
14 -17 8 -20 -5 -4 -14 2 -20 11 -6 11 -11 13 -11 5 0 -7 -4 -11 -9 -7 -5 3
-13 0 -17 -6 -5 -8 -3 -9 6 -4 10 6 12 4 7 -9 -4 -10 -7 -21 -7 -24 -1 -4 -7
4 -15 18 l-15 25 -6 -23 c-4 -15 -12 -21 -21 -18 -8 3 -12 2 -9 -2 3 -5 -1 -9
-9 -9 -8 0 -11 5 -8 10 3 6 1 7 -6 3 -6 -4 -9 -12 -6 -17 6 -8 -16 -14 -38
-10 -5 1 -5 -4 -1 -10 5 -8 3 -9 -6 -4 -9 6 -11 4 -5 -5 5 -8 4 -11 -3 -6 -6
3 -13 2 -16 -3 -13 -20 16 -22 30 -2 8 12 20 21 26 21 6 0 3 -9 -6 -19 -10
-11 -16 -26 -13 -33 4 -8 6 -7 6 5 1 20 17 23 24 5 2 -7 3 -4 1 7 -4 23 5 39
24 43 16 3 16 -15 0 -21 -7 -2 -9 -8 -5 -13 10 -11 28 17 22 34 -3 8 3 10 19
6 13 -3 27 -1 31 5 3 6 11 9 16 6 5 -4 6 2 2 12 -6 16 -5 17 13 3 15 -11 16
-11 7 0 -17 18 -17 36 0 22 16 -14 49 10 42 30 -5 11 1 14 23 13 16 -1 37 4
46 10 14 11 13 13 -9 23 -20 9 -25 8 -30 -8 -5 -16 -45 -26 -45 -10 0 7 73 54
85 55 6 1 9 7 7 14 -1 7 2 10 7 7 5 -4 14 2 20 11 5 10 12 17 15 16 15 -7 26
-2 20 9 -4 7 -3 8 4 4 7 -4 12 -1 12 6 0 15 35 40 44 31 13 -13 5 -23 -35 -49
-22 -14 -38 -28 -34 -32 4 -4 10 -1 12 6 3 6 9 10 14 6 5 -3 9 0 9 7 0 7 3 9
6 6 4 -3 25 16 46 44 33 40 43 47 54 38 8 -7 17 -9 21 -5 3 3 2 6 -4 6 -6 0
-9 9 -6 20 4 16 8 18 19 9 12 -10 13 -9 8 5 -4 10 -13 15 -21 12 -8 -3 -16 -6
-19 -6 -2 0 0 -7 3 -17 4 -11 3 -14 -5 -9 -7 4 -12 11 -12 15 0 11 60 76 60
65 0 -5 8 6 17 24 14 30 17 31 28 15 8 -10 17 -15 21 -10 4 4 2 7 -4 7 -7 0
-12 7 -12 17 0 14 3 14 22 -3 l22 -19 -17 24 c-16 23 -15 25 9 48 20 18 29 21
44 13 16 -8 18 -7 14 4 -3 8 -15 13 -27 11 -19 -4 -20 -3 -6 8 9 7 18 17 20
22 2 6 8 9 12 7 5 -1 7 3 5 10 -3 7 4 21 14 30 11 9 20 20 20 25 1 21 11 31
23 27 10 -4 12 1 8 17 -5 16 -3 20 7 14 8 -5 11 -3 8 6 -3 8 3 26 13 40 10 14
16 29 12 33 -3 3 -1 6 5 6 5 0 12 -5 14 -12 3 -8 7 -6 11 5 3 9 3 16 -1 16
-26 -4 -24 2 17 47 7 8 11 18 7 21 -3 4 1 17 9 30 9 13 13 23 10 23 -3 0 2 15
12 32 17 33 19 38 21 71 1 9 10 17 20 18 10 0 12 3 5 6 -7 2 -13 9 -13 14 0 6
5 7 11 4 6 -4 10 -1 8 6 -5 38 3 60 24 69 18 7 19 9 4 9 -11 1 -17 6 -14 14 2
6 9 11 14 10 5 -1 10 4 10 12 0 8 -4 12 -8 9 -15 -9 2 50 19 64 9 7 11 10 3 6
-11 -6 -12 -1 -6 22 8 32 15 79 16 107 0 9 5 15 11 11 6 -4 6 2 -1 15 -7 11
-8 21 -4 21 5 0 9 15 9 33 1 17 4 73 9 122 10 129 15 260 15 414 -1 94 3 138
12 149 10 12 10 14 1 8 -10 -5 -13 6 -13 48 0 34 5 56 12 59 10 4 10 6 1 6 -9
1 -13 25 -13 87 0 65 3 83 13 78 9 -6 9 -5 1 7 -17 20 -17 168 -2 187 10 13
10 14 1 8 -10 -5 -13 6 -13 48 0 34 5 56 13 59 9 4 9 6 0 6 -9 1 -13 25 -13
87 0 65 3 83 13 78 9 -6 9 -5 1 7 -17 20 -17 168 -2 187 10 13 10 14 1 8 -10
-5 -13 6 -13 48 0 34 5 56 13 59 9 4 9 6 0 6 -9 1 -13 25 -13 87 0 65 3 83 13
78 9 -6 9 -5 1 7 -17 20 -17 168 -2 187 10 13 10 14 1 8 -10 -5 -13 7 -13 48
0 38 4 56 13 56 8 0 7 4 -3 10 -13 8 -13 13 -2 31 8 11 9 18 3 14 -7 -4 -11
12 -11 49 0 34 5 56 13 59 9 4 9 6 0 6 -9 1 -13 25 -13 87 0 65 3 83 13 78 9
-6 9 -5 1 7 -17 20 -17 168 -2 187 10 13 10 14 1 8 -10 -5 -13 6 -13 48 0 34
5 56 12 59 10 4 10 6 1 6 -17 1 -17 122 -1 140 10 11 10 13 1 7 -18 -10 -18
135 -1 153 10 11 10 13 1 7 -18 -10 -18 135 -1 153 10 11 10 13 1 7 -18 -10
-18 135 0 153 10 11 9 13 0 7 -10 -6 -13 15 -13 89 0 74 3 94 13 89 9 -6 9 -5
1 7 -17 20 -17 168 -2 187 10 13 10 14 1 8 -10 -5 -13 6 -13 48 0 34 5 56 12
59 10 4 10 6 1 6 -9 1 -13 25 -13 87 0 65 3 83 13 78 9 -6 9 -5 0 7 -7 9 -12
70 -13 179 -2 174 -7 415 -10 415 0 0 -3 29 -6 65 -2 36 -6 86 -7 111 -2 25
-6 50 -9 55 -3 5 -6 25 -6 44 1 19 -2 42 -5 50 -4 8 -14 51 -22 95 -9 44 -34
134 -56 199 -184 546 -617 959 -1171 1115 -115 32 -309 67 -428 76 -41 3 -106
9 -145 12 -66 5 -4271 13 -4277 8z m5571 -7761 c-24 -26 -35 -25 -25 1 3 9 10
13 16 10 5 -3 10 1 10 10 0 9 5 13 11 10 7 -5 2 -16 -12 -31z m-169 -168 c0
-11 -19 -15 -25 -6 -3 5 1 10 9 10 9 0 16 -2 16 -4z m-6568 -66 c24 -10 47
-23 52 -27 4 -4 11 -8 14 -9 21 -3 42 -18 42 -31 0 -11 3 -13 13 -5 13 11 74
-11 88 -31 3 -5 9 -8 13 -8 24 3 48 0 42 -6 -9 -10 -36 -13 -36 -4 0 4 -9 7
-20 8 -11 1 -20 -3 -20 -10 0 -6 -6 -2 -14 8 -8 11 -12 23 -10 27 3 5 0 8 -5
8 -6 0 -11 -4 -11 -9 0 -10 -26 -9 -36 2 -4 4 -13 2 -20 -4 -9 -7 -21 0 -45
31 -31 38 -33 39 -51 23 -11 -10 -18 -12 -19 -5 -1 7 -2 18 -3 25 -1 6 -9 11
-19 11 -17 -2 -22 7 -10 19 8 9 4 10 55 -13z m6412 -25 c3 -9 0 -15 -9 -15 -9
0 -12 6 -9 15 4 8 7 15 9 15 2 0 5 -7 9 -15z m-172 -89 c-3 -5 -8 -1 -12 9 -6
17 -7 17 -13 1 -4 -9 -11 -15 -16 -12 -11 7 -23 -22 -14 -36 3 -7 1 -8 -6 -4
-22 14 1 81 25 72 8 -3 14 0 14 6 0 7 6 3 14 -7 8 -11 12 -24 8 -29z m-5909
-63 c-3 -7 -9 -13 -14 -13 -5 0 -9 6 -9 13 0 8 6 14 14 14 8 0 12 -6 9 -14z
m5721 2 c-22 -17 -34 -19 -34 -6 0 5 8 12 18 14 32 9 36 7 16 -8z m-44 -5 c0
-5 -2 -10 -4 -10 -3 0 -8 5 -11 10 -3 6 -1 10 4 10 6 0 11 -4 11 -10z m-321
-56 c13 -30 9 -39 -15 -30 -12 5 -14 10 -5 19 8 10 7 17 -1 25 -8 8 -8 12 -2
12 6 0 16 -12 23 -26z m-4984 -24 c3 -5 1 -10 -4 -10 -6 0 -11 5 -11 10 0 6 2
10 4 10 3 0 8 -4 11 -10z m178 -17 c23 -30 9 -30 -20 1 -12 13 -17 23 -10 23
7 0 21 -11 30 -24z m23 0 c-7 -7 -26 7 -26 19 0 6 6 6 15 -2 9 -7 13 -15 11
-17z m4611 13 c-5 -15 -24 -18 -24 -3 0 8 6 14 14 14 7 0 12 -5 10 -11z
m-4434 -5 c5 -1 6 -5 3 -9 -4 -7 -34 -8 -54 -3 -13 4 12 18 26 16 9 -2 21 -4
25 -4z m1413 -3 c3 -4 -1 -5 -10 -4 -8 1 -18 5 -22 8 -3 4 1 5 10 4 8 -1 18
-5 22 -8z m-398 -10 c-2 -5 -8 -9 -13 -9 -5 0 -11 4 -13 9 -1 5 4 9 13 9 9 0
14 -4 13 -9z m97 2 c4 -6 11 -7 17 -4 7 4 8 2 4 -5 -6 -9 -12 -9 -24 1 -10 7
-19 14 -21 15 -2 2 1 3 7 3 6 0 14 -5 17 -10z m135 -24 c-14 -14 -22 -2 -14
18 5 14 9 15 15 4 4 -7 4 -17 -1 -22z m268 18 c-13 -13 -20 -14 -34 -5 -17 11
-17 11 3 6 12 -3 24 -1 28 5 3 5 9 10 13 10 3 0 -1 -7 -10 -16z m182 10 c0 -8
-19 -13 -24 -6 -3 5 1 9 9 9 8 0 15 -2 15 -3z m210 -5 c0 -15 -18 -18 -34 -6
-16 12 -15 13 8 13 14 0 26 -3 26 -7z m190 -1 c0 -14 -18 -17 -28 -5 -8 10 -6
13 9 13 10 0 19 -4 19 -8z m87 -2 c-2 -6 -14 -10 -27 -10 -13 0 -25 4 -27 10
-2 6 10 10 27 10 17 0 29 -4 27 -10z m178 -4 c-3 -3 -15 -6 -27 -7 -20 -2 -20
-1 -3 11 17 13 43 9 30 -4z m1885 9 c3 -1 -1 -5 -9 -10 -7 -5 -22 -6 -33 -3
-24 6 -4 22 21 17 9 -2 18 -4 21 -4z m-2600 -22 c0 -5 -4 -9 -8 -9 -5 0 -9 7
-9 15 0 8 4 12 9 9 4 -3 8 -9 8 -15z m104 13 c2 -4 -4 -8 -14 -8 -10 0 -16 4
-14 8 3 4 9 8 14 8 5 0 11 -4 14 -8z m666 2 c0 -8 -19 -13 -24 -6 -3 5 1 9 9
9 8 0 15 -2 15 -3z"/>
<path d="M1067 395 c3 -8 9 -12 14 -9 12 7 11 11 -5 17 -10 4 -13 1 -9 -8z"/>
<path d="M1130 365 c14 -17 26 -32 28 -34 1 -3 7 0 13 6 7 7 5 14 -6 23 -8 7
-15 9 -15 5 0 -5 -10 0 -22 11 -20 17 -20 15 2 -11z"/>
<path d="M7275 310 c3 -5 8 -10 11 -10 2 0 4 5 4 10 0 6 -5 10 -11 10 -5 0 -7
-4 -4 -10z"/>
<path d="M116 5637 c3 -10 9 -15 12 -12 3 3 0 11 -7 18 -10 9 -11 8 -5 -6z"/>
<path d="M116 5397 c3 -10 9 -15 12 -12 3 3 0 11 -7 18 -10 9 -11 8 -5 -6z"/>
<path d="M110 4926 c0 -2 8 -10 18 -17 15 -13 16 -12 3 4 -13 16 -21 21 -21
13z"/>
<path d="M116 4677 c3 -10 9 -15 12 -12 3 3 0 11 -7 18 -10 9 -11 8 -5 -6z"/>
<path d="M236 1411 c-3 -4 4 -17 17 -27 22 -19 22 -19 4 2 -9 11 -14 24 -10
27 3 4 4 7 0 7 -3 0 -8 -4 -11 -9z"/>
<path d="M256 1308 c3 -5 10 -6 15 -3 13 9 11 12 -6 12 -8 0 -12 -4 -9 -9z"/>
<path d="M8251 1282 c-7 -14 -6 -19 4 -19 7 0 11 7 7 15 -4 11 -1 13 8 7 9 -5
11 -4 6 3 -10 16 -14 15 -25 -6z"/>
<path d="M286 1232 c-3 -5 1 -9 9 -9 8 0 12 4 9 9 -3 4 -7 8 -9 8 -2 0 -6 -4
-9 -8z"/>
<path d="M8230 1220 c0 -5 5 -10 11 -10 5 0 7 5 4 10 -3 6 -8 10 -11 10 -2 0
-4 -4 -4 -10z"/>
<path d="M317 1203 c-4 -3 -7 -11 -7 -17 0 -6 5 -5 12 2 6 6 9 14 7 17 -3 3
-9 2 -12 -2z"/>
<path d="M8215 1169 c-3 -4 2 -6 10 -5 21 3 28 13 10 13 -9 0 -18 -4 -20 -8z"/>
<path d="M343 1163 c-17 -6 -17 -20 0 -20 8 0 14 6 14 14 0 7 -1 13 -1 12 -1
0 -7 -3 -13 -6z"/>
<path d="M8190 1151 c0 -6 4 -13 10 -16 6 -3 7 1 4 9 -7 18 -14 21 -14 7z"/>
<path d="M335 1121 c-3 -5 -2 -12 3 -15 5 -3 9 1 9 9 0 17 -3 19 -12 6z"/>
<path d="M360 1116 c0 -2 7 -7 16 -10 8 -3 12 -2 9 4 -6 10 -25 14 -25 6z"/>
<path d="M8195 1109 c-4 -6 -5 -12 -2 -15 2 -3 7 2 10 11 7 17 1 20 -8 4z"/>
<path d="M8144 1068 l-19 -23 25 20 c14 11 27 21 29 22 2 2 0 3 -6 3 -5 0 -18
-10 -29 -22z"/>
<path d="M8157 1053 c-10 -10 -8 -33 3 -33 5 0 6 8 3 17 -5 13 -2 15 11 10 10
-4 15 -3 11 3 -7 12 -19 13 -28 3z"/>
<path d="M395 1040 c-3 -6 1 -7 9 -4 18 7 21 14 7 14 -6 0 -13 -4 -16 -10z"/>
<path d="M421 984 c0 -11 3 -14 6 -6 3 7 2 16 -1 19 -3 4 -6 -2 -5 -13z"/>
<path d="M8086 981 c-3 -4 4 -7 14 -6 27 2 33 10 10 12 -11 1 -22 -2 -24 -6z"/>
<path d="M452 940 c7 -11 17 -20 22 -20 5 0 1 9 -9 20 -10 11 -20 20 -22 20
-2 0 2 -9 9 -20z"/>
<path d="M8090 948 c0 -4 4 -8 9 -8 6 0 12 4 15 8 3 5 -1 9 -9 9 -8 0 -15 -4
-15 -9z"/>
<path d="M8069 948 c-1 -2 -3 -13 -4 -25 -2 -15 2 -20 12 -16 11 4 12 8 3 13
-7 4 -9 13 -6 19 4 6 5 11 2 11 -3 0 -7 -1 -7 -2z"/>
<path d="M482 896 c7 -8 17 -12 22 -9 4 3 2 9 -5 14 -22 13 -31 11 -17 -5z"/>
<path d="M8046 888 c14 -24 34 -30 34 -11 0 4 -3 4 -6 0 -4 -3 -15 4 -26 16
l-19 22 17 -27z"/>
<path d="M490 849 c0 -5 5 -7 10 -4 6 3 10 8 10 11 0 2 -4 4 -10 4 -5 0 -10
-5 -10 -11z"/>
<path d="M8003 830 c19 -25 20 -26 14 -8 -3 9 -1 19 6 21 7 3 2 4 -10 4 -18
-1 -20 -4 -10 -17z"/>
<path d="M7980 821 c0 -6 4 -13 10 -16 6 -3 7 1 4 9 -7 18 -14 21 -14 7z"/>
<path d="M7926 771 c-3 -5 1 -11 9 -14 9 -4 12 -1 8 9 -6 16 -10 17 -17 5z"/>
<path d="M7972 761 c-11 -7 -11 -9 0 -14 9 -3 15 1 15 9 0 8 -1 14 -1 14 -1 0
-7 -4 -14 -9z"/>
<path d="M615 750 c-5 -9 -4 -11 3 -6 12 7 16 -4 13 -34 -2 -13 -1 -13 8 0 6
8 11 11 11 5 0 -5 15 -18 33 -28 l32 -17 -25 20 c-14 12 -35 32 -46 47 -16 18
-24 22 -29 13z"/>
<path d="M7908 736 c-24 -17 -23 -21 10 -42 18 -11 23 -13 16 -3 -5 8 -9 24
-8 37 0 12 1 22 0 22 0 0 -9 -7 -18 -14z m12 -16 c0 -5 -5 -10 -11 -10 -5 0
-7 5 -4 10 3 6 8 10 11 10 2 0 4 -4 4 -10z"/>
<path d="M598 723 c7 -3 16 -2 19 1 4 3 -2 6 -13 5 -11 0 -14 -3 -6 -6z"/>
<path d="M610 690 c0 -5 5 -10 11 -10 5 0 7 5 4 10 -3 6 -8 10 -11 10 -2 0 -4
-4 -4 -10z"/>
<path d="M671 638 c-1 -20 14 -24 25 -6 4 6 3 8 -4 4 -5 -3 -13 0 -15 6 -3 8
-6 6 -6 -4z"/>
<path d="M746 628 c5 -7 2 -9 -9 -5 -11 4 -14 2 -10 -9 4 -12 8 -12 22 -2 9 7
17 13 19 14 2 1 -4 4 -13 8 -11 4 -14 2 -9 -6z"/>
<path d="M7837 633 c-10 -9 -9 -23 1 -23 5 0 9 7 9 15 0 17 -1 18 -10 8z"/>
<path d="M7759 603 c-13 -16 -12 -17 4 -4 9 7 17 15 17 17 0 8 -8 3 -21 -13z"/>
<path d="M753 595 c-3 -9 -3 -18 -1 -21 3 -3 8 4 11 16 6 23 -1 27 -10 5z"/>
<path d="M7798 573 c7 -3 16 -2 19 1 4 3 -2 6 -13 5 -11 0 -14 -3 -6 -6z"/>
<path d="M813 557 c-4 -8 -15 -17 -23 -21 -8 -3 -3 -4 11 -1 18 3 32 -2 48
-18 11 -13 18 -27 14 -31 -4 -4 1 -4 11 0 12 5 17 4 13 -2 -3 -6 -1 -16 5 -24
8 -12 9 -11 4 3 -4 12 -2 17 6 14 7 -2 11 -13 10 -23 -3 -13 0 -16 6 -9 16 15
18 39 5 41 -7 1 -17 2 -23 3 -5 0 -9 4 -9 9 4 23 -3 34 -17 28 -18 -7 -47 11
-39 24 3 5 1 11 -4 15 -5 3 -13 -1 -18 -8z m72 -47 c3 -5 1 -10 -4 -10 -6 0
-11 5 -11 10 0 6 2 10 4 10 3 0 8 -4 11 -10z"/>
<path d="M7785 550 c3 -5 8 -10 11 -10 2 0 4 5 4 10 0 6 -5 10 -11 10 -5 0 -7
-4 -4 -10z"/>
<path d="M7675 530 c-10 -11 -21 -17 -26 -15 -4 3 -11 0 -15 -7 -4 -7 -4 -10
1 -6 4 4 16 3 26 -3 15 -7 17 -6 13 5 -4 11 0 14 15 11 12 -2 21 0 21 6 0 5
-5 9 -11 9 -5 0 -7 5 -4 10 10 17 -1 11 -20 -10z"/>
<path d="M7730 517 c-10 -19 -9 -20 2 -6 7 9 19 14 26 12 17 -6 15 4 -3 11 -9
3 -19 -3 -25 -17z"/>
<path d="M790 515 c0 -7 30 -13 34 -7 3 4 -4 9 -15 9 -10 1 -19 0 -19 -2z"/>
<path d="M835 490 c3 -5 8 -10 11 -10 2 0 4 5 4 10 0 6 -5 10 -11 10 -5 0 -7
-4 -4 -10z"/>
<path d="M7655 450 c-3 -6 1 -7 9 -4 18 7 21 14 7 14 -6 0 -13 -4 -16 -10z"/>
<path d="M7690 450 c0 -5 5 -10 11 -10 5 0 7 5 4 10 -3 6 -8 10 -11 10 -2 0
-4 -4 -4 -10z"/>
<path d="M7611 437 c2 -1 13 -9 24 -17 19 -14 19 -14 6 3 -7 9 -18 17 -24 17
-6 0 -8 -1 -6 -3z"/>
<path d="M7595 409 c-4 -6 -5 -12 -2 -15 2 -3 7 2 10 11 7 17 1 20 -8 4z"/>
<path d="M1086 345 c-9 -26 -7 -32 5 -12 6 10 9 21 6 23 -2 3 -7 -2 -11 -11z"/>
<path d="M1120 290 c-12 -7 -10 -9 7 -7 12 0 19 5 17 9 -6 10 -6 10 -24 -2z"/>
<path d="M7340 276 c0 -2 11 -6 25 -8 13 -3 22 -1 19 3 -5 9 -44 13 -44 5z"/>
<path d="M1185 249 c-3 -4 2 -6 10 -5 21 3 28 13 10 13 -9 0 -18 -4 -20 -8z"/>
<path d="M7330 249 c0 -5 5 -7 10 -4 6 3 10 8 10 11 0 2 -4 4 -10 4 -5 0 -10
-5 -10 -11z"/>
<path d="M7211 237 c-8 -10 -7 -14 4 -14 8 0 12 4 9 9 -8 12 10 10 26 -4 12
-11 12 -10 1 5 -16 20 -25 21 -40 4z"/>
<path d="M1470 229 c0 -13 8 -16 35 -15 19 2 37 5 40 8 3 3 -5 5 -17 4 -13 -1
-26 3 -30 9 -5 6 -8 4 -8 -5 0 -13 -1 -13 -10 0 -8 13 -10 13 -10 -1z"/>
<path d="M1356 212 c-3 -5 1 -9 9 -9 8 0 12 4 9 9 -3 4 -7 8 -9 8 -2 0 -6 -4
-9 -8z"/>
<path d="M7161 194 c0 -11 3 -14 6 -6 3 7 2 16 -1 19 -3 4 -6 -2 -5 -13z"/>
<path d="M1846 176 c3 -8 -4 -21 -16 -29 -15 -10 -18 -17 -10 -22 7 -4 17 -2
23 4 18 18 31 13 16 -6 -13 -16 -12 -17 3 -4 16 12 18 11 14 -18 -2 -17 0 -28
5 -26 10 7 8 47 -4 63 -6 8 -5 18 4 30 7 9 10 14 5 10 -5 -4 -17 -3 -27 3 -14
7 -17 6 -13 -5z m24 -9 c0 -2 -10 -12 -22 -23 l-23 -19 19 23 c18 21 26 27 26
19z"/>
<path d="M1526 169 c5 -8 9 -17 9 -21 0 -3 4 -10 9 -15 6 -5 6 -2 1 6 -6 11
-4 13 8 8 25 -9 21 -2 -9 18 -17 11 -23 12 -18 4z"/>
<path d="M6665 170 c-3 -6 1 -7 9 -4 18 7 21 14 7 14 -6 0 -13 -4 -16 -10z"/>
<path d="M6982 166 c10 -7 15 -15 12 -18 -3 -3 9 -4 26 -3 17 1 34 6 38 9 3 4
-5 5 -20 2 -16 -3 -32 1 -39 10 -6 8 -17 14 -23 14 -6 0 -3 -7 6 -14z"/>
<path d="M1473 155 c0 -8 4 -12 9 -9 5 3 6 10 3 15 -9 13 -12 11 -12 -6z"/>
<path d="M6307 153 c-9 -10 -17 -12 -17 -6 0 12 -47 12 -68 0 -7 -5 -12 -3
-12 5 0 8 -5 6 -11 -4 -5 -10 -15 -18 -21 -18 -7 0 -7 4 0 13 8 10 6 13 -9 14
-22 2 -25 -7 -7 -25 7 -7 8 -12 2 -12 -6 0 -16 10 -23 23 -9 18 -11 18 -6 2 5
-20 5 -20 -10 -1 -8 11 -15 14 -15 7 0 -7 -5 -9 -12 -4 -19 11 -101 12 -115 0
-9 -6 -13 -5 -13 4 0 11 -2 11 -10 -1 -9 -13 -10 -13 -10 0 0 13 -1 13 -10 0
-9 -13 -10 -13 -10 0 -1 12 -3 11 -11 -2 -5 -10 -15 -18 -21 -18 -7 0 -7 4 0
13 9 10 6 13 -13 13 -13 0 -22 -3 -19 -7 2 -4 -3 -10 -11 -13 -9 -3 -18 0 -21
8 -3 7 -11 13 -19 13 -8 0 -12 -4 -9 -9 3 -4 0 -8 -5 -8 -6 0 -11 6 -11 13 0
6 -6 3 -12 -8 -21 -38 -43 -45 -45 -14 -2 16 1 18 11 10 13 -11 26 -5 26 11 0
9 -29 6 -47 -5 -8 -5 -13 -3 -13 5 0 9 -3 9 -10 -2 -5 -8 -10 -10 -10 -5 0 6
-20 11 -45 11 -29 0 -41 -4 -35 -10 6 -6 10 -15 10 -21 -1 -5 -8 -1 -18 10
-16 19 -67 32 -56 14 3 -5 0 -9 -5 -9 -6 0 -11 3 -11 8 0 4 -38 7 -84 7 -54 0
-82 -3 -80 -10 3 -6 -5 -11 -17 -12 -15 -1 -18 1 -10 11 8 9 4 12 -14 12 -13
0 -22 -3 -20 -6 2 -3 -5 -11 -16 -18 -20 -13 -26 -3 -9 14 6 6 -6 10 -34 10
-25 0 -42 -4 -40 -8 3 -4 1 -8 -5 -8 -5 0 -11 3 -14 7 -2 5 -2 2 0 -5 1 -8 -3
-12 -9 -9 -7 2 -12 9 -11 14 1 5 -4 10 -12 10 -8 0 -11 -5 -8 -10 4 -7 -1 -7
-13 -3 -27 12 -94 15 -88 4 3 -4 1 -8 -5 -8 -5 0 -11 3 -14 7 -2 5 -2 2 0 -5
1 -8 -3 -12 -9 -9 -7 2 -12 9 -11 14 1 5 -4 10 -12 10 -8 0 -11 -5 -8 -10 4
-7 -1 -7 -13 -2 -26 10 -134 13 -128 3 3 -4 0 -8 -5 -8 -6 0 -11 4 -11 9 0 10
-50 9 -67 -2 -8 -5 -13 -3 -13 5 0 9 -3 9 -10 -2 -5 -8 -10 -10 -10 -5 0 6
-24 10 -54 10 -30 0 -52 -3 -49 -8 2 -4 0 -14 -6 -21 -11 -13 -7 -53 5 -65 4
-3 5 1 2 9 -2 8 5 23 18 32 30 24 41 23 19 -2 -10 -11 -13 -20 -8 -20 6 0 13
7 17 15 3 8 11 15 17 15 8 0 8 -4 -1 -15 -23 -28 -1 -15 30 18 29 29 31 30 25
8 -5 -17 -4 -22 6 -19 18 7 51 -10 44 -22 -3 -5 -1 -11 4 -14 11 -7 9 13 -2
32 -11 16 -2 15 33 -3 l29 -15 -4 30 c-4 27 -2 28 15 18 13 -8 16 -16 10 -22
-6 -6 -10 -15 -10 -20 0 -6 7 0 16 12 12 17 19 20 29 12 9 -8 15 -8 20 0 3 5
14 10 23 10 13 0 12 -5 -8 -20 -14 -11 -20 -20 -13 -20 6 0 15 5 18 10 10 16
25 1 19 -18 -5 -14 -4 -14 4 -2 8 10 7 19 -1 29 -10 12 -9 14 5 8 10 -3 20 -2
23 3 4 6 11 10 17 10 6 0 3 -9 -7 -20 -17 -18 -17 -20 -2 -14 9 3 17 10 17 16
0 5 4 7 9 3 5 -3 16 3 23 12 15 20 38 28 38 13 0 -5 -9 -14 -20 -20 -11 -6
-25 -20 -31 -33 -9 -16 -3 -13 20 11 18 18 37 29 42 26 6 -3 3 -11 -7 -18 -13
-10 -14 -15 -4 -21 8 -5 11 -4 7 2 -4 6 0 13 8 17 8 3 15 1 15 -4 0 -6 5 -10
11 -10 8 0 7 6 -2 17 -12 15 -12 16 3 10 10 -3 20 -2 23 3 4 6 11 10 17 10 6
0 3 -9 -7 -20 -17 -18 -17 -20 -2 -14 9 3 17 10 17 16 0 5 4 7 9 3 5 -3 16 3
23 12 15 20 38 28 38 13 0 -5 -9 -14 -20 -20 -11 -6 -24 -20 -30 -33 -10 -20
-10 -20 3 -5 8 10 17 16 20 13 4 -3 5 -2 2 2 -6 8 28 32 38 26 5 -3 1 -10 -7
-16 -12 -9 -13 -16 -5 -27 9 -13 10 -13 6 2 -3 9 1 19 9 22 8 3 14 1 14 -4 0
-6 5 -10 11 -10 8 0 7 6 -2 17 -12 15 -12 16 3 10 10 -3 20 -2 23 3 4 6 11 10
17 10 6 0 3 -9 -7 -20 -17 -18 -17 -20 -2 -14 9 3 17 10 17 16 0 5 4 7 9 3 5
-3 17 5 25 17 9 12 16 19 16 14 0 -5 7 -3 15 4 15 12 22 0 8 -14 -11 -10 -10
-76 0 -69 4 3 6 10 4 16 -2 7 6 20 19 29 30 24 41 23 19 -2 -10 -11 -13 -20
-8 -20 6 0 13 7 17 15 3 8 11 15 17 15 8 0 8 -4 -1 -15 -11 -13 -10 -14 4 -9
9 3 16 9 16 13 0 10 52 7 68 -3 8 -5 21 -1 31 8 25 23 38 20 16 -4 -10 -11
-13 -20 -7 -20 7 0 12 6 12 13 0 8 4 7 11 -3 9 -13 10 -12 5 3 -3 9 -1 17 4
17 6 0 10 -5 10 -11 0 -5 12 3 26 18 24 27 25 27 19 4 -5 -17 -4 -22 6 -19 19
7 51 -11 43 -23 -3 -6 3 -5 15 3 12 7 21 17 21 22 0 4 -6 3 -14 -3 -8 -7 -17
-8 -20 -3 -3 5 6 14 20 21 32 14 35 14 28 -3 -3 -9 4 -19 18 -26 22 -11 22
-10 4 4 -11 9 -17 19 -13 22 4 4 13 1 21 -5 10 -8 16 -9 21 -1 3 5 11 10 17
10 6 0 3 -9 -7 -20 -10 -11 -14 -20 -9 -20 5 0 15 9 22 20 7 11 17 20 24 20 6
0 3 -9 -7 -20 -23 -26 -15 -26 15 0 13 12 18 20 10 20 -17 0 -4 13 15 16 10 1
13 -6 10 -26 -3 -27 -2 -28 21 -18 17 8 23 17 18 30 -5 16 -3 17 20 7 24 -11
30 -21 27 -41 0 -5 4 -8 10 -8 6 0 8 7 5 15 -3 8 -9 21 -12 29 -3 9 0 14 10
12 19 -3 34 -16 18 -16 -7 0 -12 -5 -12 -11 0 -8 6 -7 17 2 13 11 17 11 20 2
3 -7 10 -13 16 -13 8 0 7 4 -1 12 -16 16 -15 33 1 19 8 -6 17 -8 20 -4 10 10
8 -6 -3 -27 -7 -14 -6 -18 5 -16 8 1 18 6 22 11 4 4 2 5 -6 0 -9 -5 -12 -3 -9
5 2 7 16 14 32 16 23 2 25 0 15 -12 -6 -8 -10 -14 -8 -15 39 -8 40 -7 27 8
-11 14 -10 15 10 9 14 -5 22 -3 22 4 0 6 4 9 9 6 5 -3 12 2 16 12 6 16 7 16
20 -1 11 -15 13 -15 18 -2 4 8 13 12 21 9 17 -7 27 7 17 24 -5 9 -12 7 -24 -5z
m-1583 -12 c5 -1 3 -8 -4 -16 -11 -13 -16 -14 -34 -2 -18 12 -22 12 -37 -7
-21 -25 -35 -16 -18 11 10 18 34 21 93 14z m114 -14 c20 -20 10 -32 -15 -19
-10 6 -30 9 -45 7 -24 -3 -26 -1 -16 15 14 21 53 20 76 -3z m142 9 c14 -2 26
-5 28 -5 2 -1 0 -5 -3 -11 -4 -6 -17 -5 -35 5 -25 13 -29 13 -35 -3 -6 -16 -8
-16 -21 2 -10 15 -14 16 -15 5 0 -10 -2 -10 -6 -1 -2 6 -9 10 -13 7 -5 -3 -11
-2 -14 3 -5 8 62 7 114 -2z m80 -6 c-12 -23 -16 -24 -26 -8 -4 6 -3 8 3 5 6
-4 13 0 17 8 3 8 8 15 11 15 3 0 1 -9 -5 -20z m89 2 c5 2 8 -1 8 -7 -3 -17
-38 -12 -48 7 -9 17 -8 18 10 9 11 -6 24 -10 30 -9z m71 -2 c-12 -23 -16 -24
-26 -8 -4 6 -3 8 3 5 6 -4 13 0 17 8 3 8 8 15 11 15 3 0 1 -9 -5 -20z m106 3
c-2 -9 -13 -17 -25 -18 l-23 -2 23 18 c29 23 28 23 25 2z m203 3 c6 -4 18 -3
25 3 16 14 63 -16 48 -31 -6 -6 -16 -7 -23 -2 -8 4 -31 8 -51 9 -21 1 -43 6
-50 13 -8 8 -15 5 -29 -11 -21 -26 -36 -18 -18 10 9 15 22 19 49 18 20 -1 42
-5 49 -9z m157 2 c2 -3 -2 -10 -9 -17 -11 -9 -20 -7 -38 8 l-24 19 33 -3 c18
-1 35 -5 38 -7z m201 -3 c0 -8 -4 -12 -9 -9 -5 3 -6 10 -3 15 9 13 12 11 12
-6z m137 3 c-3 -4 -11 -5 -19 -1 -21 7 -19 12 4 10 11 0 18 -5 15 -9z m66 6
c0 -8 -19 -13 -24 -6 -3 5 1 9 9 9 8 0 15 -2 15 -3z m164 -6 c-3 -5 -9 -6 -14
-3 -4 3 -10 -2 -14 -10 -3 -8 -12 -12 -21 -9 -8 3 -12 10 -9 15 3 5 9 7 14 4
5 -3 11 -2 14 3 3 5 12 9 20 9 8 0 13 -4 10 -9z m-419 -8 c4 -6 11 -7 17 -4 7
4 8 2 4 -5 -6 -9 -12 -9 -24 1 -10 7 -19 14 -21 15 -2 2 1 3 7 3 6 0 14 -5 17
-10z m135 -24 c-14 -14 -22 -2 -14 18 5 14 9 15 15 4 4 -7 4 -17 -1 -22z
m-590 18 c0 -8 -19 -13 -24 -6 -3 5 1 9 9 9 8 0 15 -2 15 -3z"/>
<path d="M2219 157 c-5 -11 -4 -45 2 -41 4 2 9 -2 12 -8 3 -10 7 -10 20 1 19
15 23 1 5 -17 -9 -9 -9 -12 0 -12 7 0 12 6 12 13 0 8 4 7 11 -3 8 -12 9 -9 4
10 -6 24 -5 24 9 6 9 -11 16 -14 16 -8 0 9 8 8 28 -4 18 -11 21 -11 10 -2 -10
8 -15 18 -11 21 3 4 12 2 19 -4 8 -7 14 -7 19 1 3 5 14 10 23 10 13 0 12 -5
-8 -20 -14 -11 -20 -20 -13 -20 6 0 15 5 18 10 4 6 11 8 16 4 5 -3 6 -10 3
-16 -4 -7 -2 -8 5 -4 9 6 9 11 -1 24 -11 13 -11 15 3 10 9 -4 22 -1 28 5 6 6
14 8 18 4 3 -4 -2 -14 -13 -23 -14 -12 -12 -12 10 1 24 15 28 15 23 2 -4 -12
1 -14 26 -10 29 4 30 4 16 -14 -13 -16 -13 -17 3 -4 22 16 13 35 -13 28 -23
-6 -25 8 -3 17 9 4 23 1 31 -5 10 -9 17 -9 25 -1 21 21 32 13 13 -8 -10 -11
-14 -20 -9 -20 5 0 15 9 22 20 7 11 17 20 24 20 6 0 3 -9 -7 -20 -17 -18 -17
-20 -2 -14 9 3 17 9 17 13 0 10 52 7 68 -3 8 -5 21 -1 31 8 25 23 38 20 16 -4
-10 -11 -13 -20 -8 -20 6 0 13 7 17 15 3 8 11 15 17 15 8 0 8 -4 -1 -15 -11
-13 -10 -14 4 -9 9 3 16 9 16 14 0 8 68 5 77 -4 4 -3 14 1 23 9 17 16 50 11
50 -7 0 -6 8 0 19 13 10 13 17 28 15 34 -3 6 -36 11 -79 11 -40 0 -71 -4 -69
-8 3 -4 0 -8 -5 -8 -6 0 -11 4 -11 8 0 4 -20 8 -45 8 -29 0 -41 -4 -35 -10 6
-6 10 -15 10 -21 -1 -5 -8 -1 -18 10 -16 19 -67 32 -56 14 3 -5 0 -9 -5 -9 -6
0 -11 4 -11 8 0 4 -15 8 -34 8 -19 0 -33 -3 -30 -7 2 -4 -3 -10 -12 -13 -25
-10 -27 -7 -13 12 11 14 11 15 -1 5 -18 -17 -33 -17 -24 0 5 8 3 8 -9 -2 -9
-7 -14 -17 -11 -22 3 -5 1 -9 -4 -9 -16 0 -22 13 -12 25 7 8 5 12 -5 12 -8 0
-12 -4 -9 -9 3 -4 1 -8 -5 -8 -5 0 -11 3 -14 8 -2 4 -2 1 0 -6 1 -8 -3 -12 -9
-9 -7 2 -12 9 -11 14 1 5 -4 10 -12 10 -8 0 -11 -5 -8 -10 4 -7 -1 -8 -13 -3
-34 14 -64 17 -64 6 0 -5 5 -9 11 -8 6 2 14 -3 16 -10 8 -20 -21 -9 -34 13 -7
11 -12 14 -13 7 0 -8 -5 -10 -12 -5 -24 14 -37 11 -53 -13 -9 -14 -20 -22 -25
-19 -12 7 -13 26 -2 23 4 -2 9 1 12 6 3 5 -3 10 -12 12 -10 1 -18 2 -19 1z
m101 -17 c3 -1 8 -2 12 -1 4 0 5 -5 2 -13 -7 -18 -34 -14 -45 6 -7 13 -5 15 8
13 10 -2 20 -4 23 -5z m107 -9 c17 3 24 -1 18 -11 -6 -9 -65 14 -65 26 0 2 9
0 20 -6 10 -6 23 -10 27 -9z m223 4 c6 -4 17 -2 24 4 16 14 63 -16 48 -31 -6
-6 -16 -7 -24 -2 -7 5 -24 9 -38 10 -14 1 -27 3 -30 4 -5 3 -20 7 -33 9 -5 0
-6 5 -2 10 6 10 37 7 55 -4z m159 0 c7 -3 17 -3 24 2 7 5 35 8 62 7 81 -2 79
-2 65 -19 -11 -14 -16 -14 -35 -1 -19 13 -23 12 -34 -5 -6 -11 -17 -17 -23
-13 -6 4 -30 8 -55 9 -24 1 -51 9 -60 17 -14 14 -12 15 15 13 16 -1 35 -6 41
-10z m-314 -15 c3 -6 -1 -7 -9 -4 -18 7 -21 14 -7 14 6 0 13 -4 16 -10z m75
-4 c-7 -7 -13 -7 -20 0 -6 6 -3 10 10 10 13 0 16 -4 10 -10z"/>
<path d="M2866 131 c-4 -5 -2 -12 3 -15 5 -4 12 -2 15 3 4 5 2 12 -3 15 -5 4
-12 2 -15 -3z"/>
<path d="M4266 148 c3 -5 10 -6 15 -3 13 9 11 12 -6 12 -8 0 -12 -4 -9 -9z"/>
<path d="M1620 136 c0 -2 11 -6 25 -8 13 -3 22 -1 19 3 -5 9 -44 13 -44 5z"/>
<path d="M6658 123 c6 -2 10 -8 8 -12 -3 -4 4 -7 15 -7 19 0 19 1 3 13 -10 7
-23 13 -28 12 -6 0 -5 -3 2 -6z"/>
<path d="M1796 112 c-3 -5 1 -9 9 -9 8 0 12 4 9 9 -3 4 -7 8 -9 8 -2 0 -6 -4
-9 -8z"/>
<path d="M6261 112 c-1 -7 -11 -17 -23 -22 -13 -5 -16 -9 -8 -9 23 -1 43 15
37 30 -4 11 -6 11 -6 1z"/>
<path d="M3216 101 c-4 -6 -13 -8 -20 -5 -8 3 -17 0 -21 -6 -4 -7 2 -9 20 -6
30 6 41 13 33 22 -3 3 -9 1 -12 -5z"/>
<path d="M5380 95 c-7 -9 -11 -17 -9 -20 3 -2 10 5 17 15 14 24 10 26 -8 5z"/>
<path d="M6548 103 c7 -3 16 -2 19 1 4 3 -2 6 -13 5 -11 0 -14 -3 -6 -6z"/>
<path d="M2015 91 c-3 -5 -2 -12 3 -15 5 -3 9 1 9 9 0 17 -3 19 -12 6z"/>
<path d="M2134 86 c1 -8 5 -18 8 -22 4 -3 5 1 4 10 -1 8 -5 18 -8 22 -4 3 -5
-1 -4 -10z"/>
<path d="M2895 91 c-3 -6 4 -9 15 -8 11 1 20 5 20 9 0 11 -28 10 -35 -1z"/>
<path d="M2956 85 c-9 -26 -7 -32 5 -12 6 10 9 21 6 23 -2 3 -7 -2 -11 -11z"/>
<path d="M3506 92 c-3 -4 4 -9 15 -9 23 -2 25 3 4 10 -8 4 -16 3 -19 -1z"/>
<path d="M3670 90 c-12 -7 -10 -9 7 -7 12 0 19 5 17 9 -6 10 -6 10 -24 -2z"/>
<path d="M3830 93 c0 -6 8 -17 18 -24 16 -13 16 -13 2 6 -8 11 -16 22 -17 24
-2 2 -3 0 -3 -6z"/>
<path d="M4255 91 c-3 -6 4 -9 15 -8 11 1 20 5 20 9 0 11 -28 10 -35 -1z"/>
<path d="M4895 89 c-4 -6 -4 -13 -1 -16 3 -4 6 -1 6 6 0 7 5 9 12 5 7 -4 8 -3
4 4 -9 15 -13 15 -21 1z"/>
<path d="M6066 92 c-3 -4 4 -9 15 -9 23 -2 25 3 4 10 -8 4 -16 3 -19 -1z"/>
<path d="M6280 96 c0 -2 8 -10 18 -17 15 -13 16 -12 3 4 -13 16 -21 21 -21 13z"/>
<path d="M6410 80 c-6 -11 -8 -20 -6 -20 3 0 10 9 16 20 6 11 8 20 6 20 -3 0
-10 -9 -16 -20z"/>
<path d="M6515 90 c3 -5 8 -10 11 -10 2 0 4 5 4 10 0 6 -5 10 -11 10 -5 0 -7
-4 -4 -10z"/>
<path d="M2675 79 c-4 -6 -5 -12 -2 -15 2 -3 7 2 10 11 7 17 1 20 -8 4z"/>
<path d="M2811 83 c-2 -20 16 -24 30 -5 13 15 12 16 -3 4 -13 -10 -17 -10 -21
0 -4 9 -6 9 -6 1z"/>
<path d="M3000 81 c0 -6 4 -13 10 -16 6 -3 7 1 4 9 -7 18 -14 21 -14 7z"/>
<path d="M3030 79 c0 -5 5 -7 10 -4 6 3 10 8 10 11 0 2 -4 4 -10 4 -5 0 -10
-5 -10 -11z"/>
<path d="M3431 83 c-1 -17 16 -25 25 -12 4 7 3 9 -4 5 -5 -3 -13 0 -15 6 -4 9
-6 10 -6 1z"/>
<path d="M3730 83 c0 -1 8 -7 18 -12 13 -7 19 -6 19 2 0 7 -9 13 -19 13 -10 0
-18 -1 -18 -3z"/>
<path d="M4391 83 c-2 -20 16 -24 30 -5 13 15 12 16 -3 4 -13 -10 -17 -10 -21
0 -4 9 -6 9 -6 1z"/>
<path d="M4571 83 c-1 -17 16 -25 25 -12 4 7 3 9 -4 5 -5 -3 -13 0 -15 6 -4 9
-6 10 -6 1z"/>
<path d="M4760 81 c0 -6 4 -13 10 -16 6 -3 7 1 4 9 -7 18 -14 21 -14 7z"/>
<path d="M5531 83 c-2 -20 16 -24 30 -5 13 15 12 16 -3 4 -13 -10 -17 -10 -21
0 -4 9 -6 9 -6 1z"/>
<path d="M5720 81 c0 -6 4 -13 10 -16 6 -3 7 1 4 9 -7 18 -14 21 -14 7z"/>
<path d="M5991 83 c-1 -17 16 -25 25 -12 4 7 3 9 -4 5 -5 -3 -13 0 -15 6 -4 9
-6 10 -6 1z"/>
<path d="M6435 81 c-3 -5 -2 -12 3 -15 5 -3 9 1 9 9 0 17 -3 19 -12 6z"/>
<path d="M3590 76 c0 -2 7 -7 16 -10 8 -3 12 -2 9 4 -6 10 -25 14 -25 6z"/>
<path d="M3946 68 c3 -5 10 -6 15 -3 13 9 11 12 -6 12 -8 0 -12 -4 -9 -9z"/>
<path d="M4130 69 c0 -5 5 -7 10 -4 6 3 10 8 10 11 0 2 -4 4 -10 4 -5 0 -10
-5 -10 -11z"/>
<path d="M6150 69 c0 -5 5 -7 10 -4 6 3 10 8 10 11 0 2 -4 4 -10 4 -5 0 -10
-5 -10 -11z"/>
</g>
</svg>
